<svg id="Layer_1" data-name="Layer 1" xmlns="http://www.w3.org/2000/svg" viewBox="0 0 1000 1000"><defs><style>.cls-1{fill:#333;}.cls-2{fill:#999;}.cls-3{fill:#e6e6e6;}.cls-4{fill:#ccc;}</style></defs><title>loaf</title><rect class="cls-1" width="1000" height="1000"/><path class="cls-2" d="M212,413.14c0,30.3,24.24,54.86,64,54.86,0,0,448,273.67,448,256V468c39.76,0,64-24.56,64-54.86C788,337.4,680,244,500,244S212,337.4,212,413.14Z"/><path class="cls-3" d="M212,413.14c0,30.3,24.24,54.86,64,54.86V724c0,17.67,16.12,32,36,32H688c19.88,0,36-14.33,36-32V468C763.76,468,212,337.4,212,413.14Z"/><path class="cls-4" d="M212,413.14c0,30.3,24.24,54.86,64,54.86V724c0,17.67,16.12,32,36,32,0,0,368-512,188-512S212,337.4,212,413.14Z"/></svg>